<mxfile host="app.diagrams.net" agent="Mozilla/5.0 (Macintosh; Intel Mac OS X 10_15_7) AppleWebKit/537.36 (KHTML, like Gecko) Chrome/130.0.0.0 Safari/537.36" version="25.0.3">
  <diagram name="Page-1" id="lxadkYJV3xL7xQ1NtVaC">
    <mxGraphModel dx="1026" dy="630" grid="1" gridSize="10" guides="1" tooltips="1" connect="1" arrows="1" fold="1" page="1" pageScale="1" pageWidth="827" pageHeight="1169" math="0" shadow="0">
      <root>
        <mxCell id="0" />
        <mxCell id="1" parent="0" />
        <mxCell id="lIuUIeLf_cnMWpZWEb0K-5" value="" style="rounded=0;whiteSpace=wrap;html=1;" vertex="1" parent="1">
          <mxGeometry x="180" y="540" width="320" height="80" as="geometry" />
        </mxCell>
        <mxCell id="lIuUIeLf_cnMWpZWEb0K-7" value="htab" style="text;html=1;align=center;verticalAlign=middle;resizable=0;points=[];autosize=1;strokeColor=none;fillColor=none;" vertex="1" parent="1">
          <mxGeometry x="310" y="620" width="50" height="30" as="geometry" />
        </mxCell>
        <mxCell id="lIuUIeLf_cnMWpZWEb0K-10" value="tab" style="ellipse;whiteSpace=wrap;html=1;" vertex="1" parent="1">
          <mxGeometry x="190" y="555" width="80" height="50" as="geometry" />
        </mxCell>
        <mxCell id="lIuUIeLf_cnMWpZWEb0K-11" value="mask" style="ellipse;whiteSpace=wrap;html=1;" vertex="1" parent="1">
          <mxGeometry x="300" y="555" width="80" height="50" as="geometry" />
        </mxCell>
        <mxCell id="lIuUIeLf_cnMWpZWEb0K-12" value="size" style="ellipse;whiteSpace=wrap;html=1;" vertex="1" parent="1">
          <mxGeometry x="400" y="555" width="80" height="50" as="geometry" />
        </mxCell>
        <mxCell id="lIuUIeLf_cnMWpZWEb0K-13" value="" style="endArrow=classic;html=1;rounded=0;" edge="1" parent="1">
          <mxGeometry width="50" height="50" relative="1" as="geometry">
            <mxPoint x="230" y="555" as="sourcePoint" />
            <mxPoint x="230" y="500" as="targetPoint" />
          </mxGeometry>
        </mxCell>
        <mxCell id="lIuUIeLf_cnMWpZWEb0K-14" value="" style="rounded=1;whiteSpace=wrap;html=1;" vertex="1" parent="1">
          <mxGeometry x="180" y="430" width="320" height="60" as="geometry" />
        </mxCell>
        <mxCell id="lIuUIeLf_cnMWpZWEb0K-15" value="" style="endArrow=none;html=1;rounded=0;entryX=0.163;entryY=-0.017;entryDx=0;entryDy=0;entryPerimeter=0;" edge="1" parent="1">
          <mxGeometry width="50" height="50" relative="1" as="geometry">
            <mxPoint x="240" y="490" as="sourcePoint" />
            <mxPoint x="242.16000000000008" y="428.98" as="targetPoint" />
          </mxGeometry>
        </mxCell>
        <mxCell id="lIuUIeLf_cnMWpZWEb0K-16" value="" style="endArrow=none;html=1;rounded=0;entryX=0.272;entryY=0.067;entryDx=0;entryDy=0;entryPerimeter=0;" edge="1" parent="1">
          <mxGeometry width="50" height="50" relative="1" as="geometry">
            <mxPoint x="302.96000000000004" y="490" as="sourcePoint" />
            <mxPoint x="300" y="434.02" as="targetPoint" />
          </mxGeometry>
        </mxCell>
        <mxCell id="lIuUIeLf_cnMWpZWEb0K-17" value="" style="ellipse;whiteSpace=wrap;html=1;" vertex="1" parent="1">
          <mxGeometry x="190" y="440" width="50" height="50" as="geometry" />
        </mxCell>
        <mxCell id="lIuUIeLf_cnMWpZWEb0K-18" value="" style="endArrow=classic;html=1;rounded=0;" edge="1" parent="1">
          <mxGeometry width="50" height="50" relative="1" as="geometry">
            <mxPoint x="210" y="440" as="sourcePoint" />
            <mxPoint x="210" y="390" as="targetPoint" />
          </mxGeometry>
        </mxCell>
        <mxCell id="lIuUIeLf_cnMWpZWEb0K-19" value="" style="shape=parallelogram;perimeter=parallelogramPerimeter;whiteSpace=wrap;html=1;fixedSize=1;" vertex="1" parent="1">
          <mxGeometry x="170" y="330" width="120" height="60" as="geometry" />
        </mxCell>
        <mxCell id="lIuUIeLf_cnMWpZWEb0K-20" value="HNode" style="text;strokeColor=none;fillColor=none;align=left;verticalAlign=middle;spacingLeft=4;spacingRight=4;overflow=hidden;points=[[0,0.5],[1,0.5]];portConstraint=eastwest;rotatable=0;whiteSpace=wrap;html=1;" vertex="1" parent="1">
          <mxGeometry x="210" y="310" width="80" height="30" as="geometry" />
        </mxCell>
        <mxCell id="lIuUIeLf_cnMWpZWEb0K-21" value="hcode" style="text;html=1;align=center;verticalAlign=middle;whiteSpace=wrap;rounded=0;" vertex="1" parent="1">
          <mxGeometry x="170" y="345" width="60" height="30" as="geometry" />
        </mxCell>
        <mxCell id="lIuUIeLf_cnMWpZWEb0K-22" value="" style="ellipse;whiteSpace=wrap;html=1;" vertex="1" parent="1">
          <mxGeometry x="230" y="340" width="40" height="40" as="geometry" />
        </mxCell>
        <mxCell id="lIuUIeLf_cnMWpZWEb0K-42" value="" style="shape=parallelogram;perimeter=parallelogramPerimeter;whiteSpace=wrap;html=1;fixedSize=1;" vertex="1" parent="1">
          <mxGeometry x="300" y="330" width="120" height="60" as="geometry" />
        </mxCell>
        <mxCell id="lIuUIeLf_cnMWpZWEb0K-43" value="HNode" style="text;strokeColor=none;fillColor=none;align=left;verticalAlign=middle;spacingLeft=4;spacingRight=4;overflow=hidden;points=[[0,0.5],[1,0.5]];portConstraint=eastwest;rotatable=0;whiteSpace=wrap;html=1;" vertex="1" parent="1">
          <mxGeometry x="340" y="310" width="80" height="30" as="geometry" />
        </mxCell>
        <mxCell id="lIuUIeLf_cnMWpZWEb0K-44" value="hcode" style="text;html=1;align=center;verticalAlign=middle;whiteSpace=wrap;rounded=0;" vertex="1" parent="1">
          <mxGeometry x="310" y="345" width="60" height="30" as="geometry" />
        </mxCell>
        <mxCell id="lIuUIeLf_cnMWpZWEb0K-45" value="" style="ellipse;whiteSpace=wrap;html=1;" vertex="1" parent="1">
          <mxGeometry x="360" y="340" width="40" height="40" as="geometry" />
        </mxCell>
        <mxCell id="lIuUIeLf_cnMWpZWEb0K-46" value="" style="endArrow=classic;html=1;rounded=0;exitX=1;exitY=0.5;exitDx=0;exitDy=0;" edge="1" parent="1" source="lIuUIeLf_cnMWpZWEb0K-45">
          <mxGeometry width="50" height="50" relative="1" as="geometry">
            <mxPoint x="660" y="620" as="sourcePoint" />
            <mxPoint x="500" y="360" as="targetPoint" />
          </mxGeometry>
        </mxCell>
        <mxCell id="lIuUIeLf_cnMWpZWEb0K-47" value="" style="ellipse;whiteSpace=wrap;html=1;aspect=fixed;" vertex="1" parent="1">
          <mxGeometry x="250" y="445" width="40" height="40" as="geometry" />
        </mxCell>
        <mxCell id="lIuUIeLf_cnMWpZWEb0K-48" value="" style="endArrow=classic;html=1;rounded=0;exitX=0.5;exitY=0;exitDx=0;exitDy=0;entryX=0.45;entryY=1;entryDx=0;entryDy=0;entryPerimeter=0;" edge="1" parent="1" source="lIuUIeLf_cnMWpZWEb0K-47" target="lIuUIeLf_cnMWpZWEb0K-42">
          <mxGeometry width="50" height="50" relative="1" as="geometry">
            <mxPoint x="530" y="560" as="sourcePoint" />
            <mxPoint x="580" y="510" as="targetPoint" />
          </mxGeometry>
        </mxCell>
        <mxCell id="lIuUIeLf_cnMWpZWEb0K-53" value="next" style="ellipse;whiteSpace=wrap;html=1;aspect=fixed;" vertex="1" parent="1">
          <mxGeometry x="400" y="240" width="50" height="50" as="geometry" />
        </mxCell>
        <mxCell id="lIuUIeLf_cnMWpZWEb0K-54" value="" style="endArrow=classic;html=1;rounded=0;exitX=0.5;exitY=1;exitDx=0;exitDy=0;entryX=0.75;entryY=0.667;entryDx=0;entryDy=0;entryPerimeter=0;" edge="1" parent="1" source="lIuUIeLf_cnMWpZWEb0K-53" target="lIuUIeLf_cnMWpZWEb0K-43">
          <mxGeometry width="50" height="50" relative="1" as="geometry">
            <mxPoint x="530" y="560" as="sourcePoint" />
            <mxPoint x="580" y="510" as="targetPoint" />
          </mxGeometry>
        </mxCell>
        <mxCell id="lIuUIeLf_cnMWpZWEb0K-55" value="" style="shape=parallelogram;perimeter=parallelogramPerimeter;whiteSpace=wrap;html=1;fixedSize=1;" vertex="1" parent="1">
          <mxGeometry x="570" y="400" width="120" height="60" as="geometry" />
        </mxCell>
        <mxCell id="lIuUIeLf_cnMWpZWEb0K-56" value="HNode" style="text;html=1;align=center;verticalAlign=middle;resizable=0;points=[];autosize=1;strokeColor=none;fillColor=none;" vertex="1" parent="1">
          <mxGeometry x="610" y="380" width="60" height="30" as="geometry" />
        </mxCell>
        <mxCell id="lIuUIeLf_cnMWpZWEb0K-57" value="" style="ellipse;whiteSpace=wrap;html=1;aspect=fixed;" vertex="1" parent="1">
          <mxGeometry x="630" y="410" width="40" height="40" as="geometry" />
        </mxCell>
        <mxCell id="lIuUIeLf_cnMWpZWEb0K-60" value="hcode" style="text;html=1;align=center;verticalAlign=middle;resizable=0;points=[];autosize=1;strokeColor=none;fillColor=none;" vertex="1" parent="1">
          <mxGeometry x="580" y="420" width="60" height="30" as="geometry" />
        </mxCell>
        <mxCell id="lIuUIeLf_cnMWpZWEb0K-61" value="node" style="ellipse;whiteSpace=wrap;html=1;aspect=fixed;" vertex="1" parent="1">
          <mxGeometry x="590" y="490" width="50" height="50" as="geometry" />
        </mxCell>
        <mxCell id="lIuUIeLf_cnMWpZWEb0K-62" value="" style="endArrow=classic;html=1;rounded=0;exitX=0.5;exitY=0;exitDx=0;exitDy=0;entryX=0.5;entryY=1;entryDx=0;entryDy=0;" edge="1" parent="1" source="lIuUIeLf_cnMWpZWEb0K-61" target="lIuUIeLf_cnMWpZWEb0K-55">
          <mxGeometry width="50" height="50" relative="1" as="geometry">
            <mxPoint x="520" y="630" as="sourcePoint" />
            <mxPoint x="570" y="580" as="targetPoint" />
          </mxGeometry>
        </mxCell>
        <mxCell id="lIuUIeLf_cnMWpZWEb0K-63" value="" style="endArrow=classic;html=1;rounded=0;" edge="1" parent="1">
          <mxGeometry width="50" height="50" relative="1" as="geometry">
            <mxPoint x="250" y="340" as="sourcePoint" />
            <mxPoint x="250" y="280" as="targetPoint" />
          </mxGeometry>
        </mxCell>
        <mxCell id="lIuUIeLf_cnMWpZWEb0K-65" value="" style="shape=parallelogram;perimeter=parallelogramPerimeter;whiteSpace=wrap;html=1;fixedSize=1;" vertex="1" parent="1">
          <mxGeometry x="170" y="220" width="120" height="60" as="geometry" />
        </mxCell>
        <mxCell id="lIuUIeLf_cnMWpZWEb0K-66" value="" style="ellipse;whiteSpace=wrap;html=1;aspect=fixed;" vertex="1" parent="1">
          <mxGeometry x="230" y="230" width="40" height="40" as="geometry" />
        </mxCell>
        <mxCell id="lIuUIeLf_cnMWpZWEb0K-67" value="&lt;span style=&quot;color: rgb(0, 0, 0); font-family: Helvetica; font-size: 12px; font-style: normal; font-variant-ligatures: normal; font-variant-caps: normal; font-weight: 400; letter-spacing: normal; orphans: 2; text-align: center; text-indent: 0px; text-transform: none; widows: 2; word-spacing: 0px; -webkit-text-stroke-width: 0px; white-space: normal; background-color: rgb(251, 251, 251); text-decoration-thickness: initial; text-decoration-style: initial; text-decoration-color: initial; display: inline !important; float: none;&quot;&gt;hcode&lt;/span&gt;" style="text;whiteSpace=wrap;html=1;" vertex="1" parent="1">
          <mxGeometry x="180" y="240" width="70" height="40" as="geometry" />
        </mxCell>
        <mxCell id="lIuUIeLf_cnMWpZWEb0K-68" value="" style="endArrow=classic;html=1;rounded=0;" edge="1" parent="1">
          <mxGeometry width="50" height="50" relative="1" as="geometry">
            <mxPoint x="250" y="230" as="sourcePoint" />
            <mxPoint x="250" y="180" as="targetPoint" />
          </mxGeometry>
        </mxCell>
        <mxCell id="lIuUIeLf_cnMWpZWEb0K-69" value="NULL" style="text;html=1;align=center;verticalAlign=middle;resizable=0;points=[];autosize=1;strokeColor=none;fillColor=none;" vertex="1" parent="1">
          <mxGeometry x="225" y="150" width="50" height="30" as="geometry" />
        </mxCell>
        <mxCell id="lIuUIeLf_cnMWpZWEb0K-72" value="" style="endArrow=classic;html=1;rounded=0;exitX=0;exitY=1;exitDx=0;exitDy=0;entryX=0.95;entryY=0.9;entryDx=0;entryDy=0;entryPerimeter=0;fillColor=#f8cecc;strokeColor=#b85450;" edge="1" parent="1" source="lIuUIeLf_cnMWpZWEb0K-57" target="lIuUIeLf_cnMWpZWEb0K-43">
          <mxGeometry width="50" height="50" relative="1" as="geometry">
            <mxPoint x="390" y="430" as="sourcePoint" />
            <mxPoint x="440" y="380" as="targetPoint" />
          </mxGeometry>
        </mxCell>
        <mxCell id="lIuUIeLf_cnMWpZWEb0K-74" value="" style="endArrow=classic;html=1;rounded=0;exitX=0.925;exitY=0.325;exitDx=0;exitDy=0;exitPerimeter=0;entryX=0.142;entryY=1;entryDx=0;entryDy=0;entryPerimeter=0;fillColor=#f8cecc;strokeColor=#b85450;" edge="1" parent="1" source="lIuUIeLf_cnMWpZWEb0K-47" target="lIuUIeLf_cnMWpZWEb0K-55">
          <mxGeometry width="50" height="50" relative="1" as="geometry">
            <mxPoint x="390" y="430" as="sourcePoint" />
            <mxPoint x="440" y="380" as="targetPoint" />
          </mxGeometry>
        </mxCell>
        <mxCell id="lIuUIeLf_cnMWpZWEb0K-75" value="&lt;font color=&quot;#ff0000&quot;&gt;XXX&lt;/font&gt;" style="text;html=1;align=center;verticalAlign=middle;resizable=0;points=[];autosize=1;strokeColor=none;fillColor=none;" vertex="1" parent="1">
          <mxGeometry x="290" y="400" width="50" height="30" as="geometry" />
        </mxCell>
        <mxCell id="lIuUIeLf_cnMWpZWEb0K-76" value="NULL" style="text;html=1;align=center;verticalAlign=middle;resizable=0;points=[];autosize=1;strokeColor=none;fillColor=none;" vertex="1" parent="1">
          <mxGeometry x="500" y="345" width="50" height="30" as="geometry" />
        </mxCell>
        <mxCell id="lIuUIeLf_cnMWpZWEb0K-77" value="&lt;b&gt;&lt;font style=&quot;font-size: 16px;&quot;&gt;The picture shows the process of &quot;h_insert&quot; function&lt;/font&gt;&lt;/b&gt;&lt;div&gt;&lt;br&gt;&lt;/div&gt;" style="text;html=1;align=center;verticalAlign=middle;resizable=0;points=[];autosize=1;strokeColor=none;fillColor=none;" vertex="1" parent="1">
          <mxGeometry x="350" y="170" width="430" height="50" as="geometry" />
        </mxCell>
      </root>
    </mxGraphModel>
  </diagram>
</mxfile>
